<?xml version="1.0" encoding="UTF-8"?><svg id="Layer_1" xmlns="http://www.w3.org/2000/svg" width="138.62mm" height="158.24mm" viewBox="0 0 392.95 448.54"><defs><style>.cls-1{fill:#fff;stroke-width:0px;}</style></defs><path class="cls-1" d="m105.53,385.68v-161.91c0-5.09-2.02-9.96-5.62-13.56l-42.42-42.42c-.95,3.66-1.76,7.37-2.43,11.13l40.88,40.88v165.88h9.59Z"/><path class="cls-1" d="m115.94,189.88c-3.6,3.6-5.62,8.47-5.62,13.56v5.62l35.3-35.3-6.78-6.78-22.9,22.9Z"/><path class="cls-1" d="m105.53,203.44c0-5.09-2.02-9.96-5.62-13.56l-37.47-37.47c-1.28,3.31-2.43,6.67-3.46,10.09l46.55,46.55v-5.62Z"/><path class="cls-1" d="m115.94,169.54c-3.6,3.6-5.62,8.47-5.62,13.56v5.62l25.13-25.13-6.78-6.78-12.74,12.74Z"/><path class="cls-1" d="m105.53,183.1c0-5.09-2.02-9.96-5.62-13.56l-31.17-31.17c-1.55,3.01-3,6.09-4.34,9.22l41.12,41.12v-5.62Z"/><path class="cls-1" d="m115.94,210.22c-3.6,3.6-5.62,8.47-5.62,13.56v161.91h9.59v-165.88l35.88-35.88-6.78-6.78-33.07,33.07Z"/><path class="cls-1" d="m117.21,84.32c-2.7,1.79-5.34,3.68-7.91,5.64l78,78,6.78,6.78v-5.62c0-2.32-.42-4.59-1.22-6.72-.95-2.54-2.44-4.88-4.39-6.84l-71.25-71.25Zm62.32,62.32l6.78,6.78-6.78-6.78Z"/><path class="cls-1" d="m94.84,102.63c-2.26,2.26-4.44,4.6-6.54,7.01l78.67,78.67,17.53,17.53v179.85h9.59v-175.88c0-5.09-2.02-9.96-5.62-13.56l-14.72-14.72-78.9-78.9Z"/><path class="cls-1" d="m204.49,175.91c-3.6,3.6-5.62,8.47-5.62,13.56v5.62l21.33-21.33-6.78-6.78-8.94,8.94Z"/><path class="cls-1" d="m294.66,99.3c-2.34-2.19-4.74-4.31-7.22-6.34l-40.12,40.12,6.78,6.78,40.56-40.56Z"/><path class="cls-1" d="m105.51,92.96c-2.48,2.03-4.88,4.15-7.22,6.34l78.84,78.84,16.95,16.95v-5.62c0-5.09-2.02-9.96-5.62-13.56l-4.55-4.55-78.4-78.4Z"/><path class="cls-1" d="m198.87,169.13v5.62l11.16-11.16-6.72-6.72c-2.86,3.43-4.44,7.77-4.44,12.27Z"/><path class="cls-1" d="m283.65,89.97c-2.57-1.97-5.21-3.85-7.91-5.64l-38.59,38.59,6.78,6.78,39.72-39.72Z"/><path class="cls-1" d="m304.65,109.64c-2.1-2.41-4.29-4.75-6.54-7.01l-40.62,40.62,6.78,6.78,40.39-40.39Z"/><path class="cls-1" d="m204.49,196.25c-3.6,3.6-5.62,8.47-5.62,13.56v175.88h9.59v-179.85h0s21.91-21.91,21.91-21.91l-6.78-6.78-19.1,19.1Z"/><path class="cls-1" d="m170.32,62.86c-3.74.69-7.43,1.52-11.06,2.5l27.05,27.05,6.78-6.78-22.77-22.77Z"/><path class="cls-1" d="m226.98,119.52l-6.78,6.78,55.64,55.64,6.78,6.78v-5.62c0-2.32-.42-4.59-1.22-6.72-.95-2.54-2.44-4.88-4.39-6.84l-50.02-50.02Z"/><path class="cls-1" d="m139.16,72.38c-3.12,1.36-6.17,2.82-9.17,4.39l35.97,35.97,6.78-6.78-33.58-33.58Z"/><path class="cls-1" d="m273.03,385.68h9.59v-161.91c0-5.09-2.02-9.96-5.62-13.56l-14.72-14.72-55.64-55.64-6.78,6.78,55.64,55.64,17.53,17.53v165.88Z"/><path class="cls-1" d="m287.41,203.44v5.62l46.55-46.55c-1.03-3.42-2.19-6.79-3.46-10.09l-37.47,37.47c-3.6,3.6-5.62,8.47-5.62,13.56Z"/><path class="cls-1" d="m153.99,66.87c-3.4,1.05-6.75,2.23-10.04,3.52l32.19,32.19,6.78-6.78-28.93-28.93Z"/><path class="cls-1" d="m216.81,129.69l-6.78,6.78,55.64,55.64,16.95,16.95v-5.62c0-5.09-2.02-9.96-5.62-13.56l-4.55-4.55-55.64-55.64Z"/><path class="cls-1" d="m293.03,169.54c-3.6,3.6-5.62,8.47-5.62,13.56v5.62l41.12-41.12c-1.34-3.13-2.79-6.21-4.34-9.22l-31.17,31.17Z"/><path class="cls-1" d="m335.45,167.8l-42.42,42.42c-3.6,3.6-5.62,8.47-5.62,13.56v161.91h9.59v-165.88l40.88-40.88c-.66-3.76-1.48-7.47-2.43-11.13Z"/><path class="cls-1" d="m182.91,143.25l6.78,6.78,73.26-73.26c-3-1.57-6.05-3.03-9.17-4.39l-70.87,70.87Z"/><line class="cls-1" x1="179.52" y1="146.64" x2="186.3" y2="153.42"/><path class="cls-1" d="m172.75,133.08l6.78,6.78,69.47-69.47c-3.29-1.29-6.64-2.47-10.04-3.52l-66.21,66.21Z"/><path class="cls-1" d="m162.58,122.91l6.78,6.78,64.34-64.34c-3.63-.97-7.32-1.81-11.06-2.5l-60.05,60.05Z"/></svg>